<svg width="62" height="56" viewBox="0 0 62 56" fill="none" xmlns="http://www.w3.org/2000/svg">
<path d="M33.608 0.594368C30.294 1.97776 29.2872 5.28439 31.4686 7.7475C34.7407 11.459 42.7112 9.4683 42.7112 4.98072C42.7112 1.16797 37.8869 -1.16017 33.608 0.594368Z" fill="white"/>
<path d="M32.9992 12.5761C32.3013 12.8784 28.4629 16.3379 24.4695 20.2004L17.2193 27.2538L15.5133 32.9301L13.8462 38.6064L7.1 45.1895C3.37796 48.817 0.237496 52.1085 0.121183 52.5116C-0.460385 54.4261 1.12923 55.9711 3.22288 55.5009C3.88199 55.3665 6.71228 52.8475 11.2873 48.3803C15.2032 44.5849 18.5763 41.1254 18.8089 40.756C19.0415 40.3529 19.7394 38.3041 20.3597 36.2217C20.9801 34.1728 21.5617 32.4599 21.678 32.4599C21.7943 32.4599 23.035 33.7698 24.3919 35.382L26.9121 38.3377L27.2998 46.2979C27.6487 53.7879 27.7263 54.3253 28.5405 54.9971C29.6648 56.0047 31.332 55.9375 32.4176 54.8291C33.3869 53.8215 33.3869 54.9635 32.689 41.4277L32.4564 36.7927L29.1996 32.9301C27.4161 30.8141 25.9428 28.9668 25.9428 28.8324C25.9428 28.6981 26.6407 27.9256 27.4936 27.0859L29.0057 25.5744L29.0445 27.4217V29.2691L32.9992 32.5942C38.0394 36.8262 40.5208 38.5056 41.6064 38.5056C42.9246 38.5056 44.1653 37.2965 44.1653 36.0201C44.1653 35.0461 43.6612 34.5087 39.3189 31.0828L34.4725 27.2538V24.4996C34.4725 21.947 34.5888 21.5775 35.907 19.4951L37.3028 17.2783L38.8924 17.4463C39.7841 17.547 42.343 17.8493 44.6693 18.0844L48.8178 18.4875L53.5479 22.6187C58.5106 26.9851 59.286 27.3546 61.147 26.2126C61.7286 25.8431 62 25.3729 62 24.5332C62 23.492 61.4572 22.8538 57.1148 18.9241C54.4396 16.5058 51.997 14.3562 51.6481 14.1883C51.3379 14.0539 47.8097 13.5501 43.8551 13.1135C39.8617 12.6768 36.1008 12.2402 35.4417 12.1394C34.7439 12.0387 33.7746 12.2066 32.9992 12.5761Z" fill="white"/>
<path d="M42.6187 39.435C37.8907 41.9705 39.8576 48.4427 45.3799 48.4427C48.5571 48.4427 50.9778 46.3409 50.9778 43.6386C50.9778 39.9355 46.212 37.5001 42.6187 39.435Z" fill="white"/>
</svg>
