<svg width="61" height="30" viewBox="0 0 61 30" fill="none" xmlns="http://www.w3.org/2000/svg">
<path d="M36.7794 0.491045C36.567 0.67697 36.4152 1.07538 36.4152 1.36755C36.4152 1.68627 38.0845 4.92667 40.1181 8.56548C42.182 12.2043 43.8817 15.2588 43.9424 15.365C44.0031 15.4978 42.7587 15.5775 41.15 15.5775H38.2363L35.6868 11.1153C34.2906 8.67172 32.9248 6.49375 32.6819 6.30782C31.9535 5.80317 30.8608 6.04222 30.5573 6.81248C30.3145 7.39681 30.7698 8.32643 33.3497 12.8683C36.3241 18.1007 36.4152 18.2867 36.4152 20.0397C36.4152 21.0755 36.567 22.0317 36.8098 22.2708C37.174 22.7223 48.0095 28.8844 48.8897 29.1765C49.7092 29.4421 50.7412 28.6453 50.6197 27.8485C50.5287 27.2642 49.6485 26.6533 45.0654 24.0503C42.0606 22.3504 39.5718 20.7834 39.5111 20.5709C39.4504 20.2522 39.9056 20.1459 41.7571 20.0131C43.0318 19.9069 44.7619 19.8272 45.6117 19.8272H47.1293L51.5606 16.029C53.9888 13.9573 57.115 11.3278 58.5112 10.2122C59.9073 9.07013 61 7.95458 61 7.68897C61 6.97184 60.4233 6.54687 59.4521 6.54687C58.7843 6.54687 57.5096 7.47649 53.2907 10.9559C50.3769 13.3729 47.9185 15.4978 47.8578 15.6572C47.797 15.8431 47.6453 15.8962 47.5239 15.8165C47.4328 15.7368 45.4296 12.2574 43.1229 8.08739C40.7858 3.91737 38.6612 0.437923 38.388 0.331682C37.6293 0.0926361 37.174 0.145758 36.7794 0.491045Z" fill="white"/>
<path d="M21.9986 6.06659C20.9389 6.57509 20.3333 7.45826 20.3333 8.50202C20.3333 9.8134 20.7269 10.4557 21.8472 10.9642C24.8146 12.3291 27.7213 9.89369 26.3285 7.2174C25.6926 5.95954 23.4217 5.37076 21.9986 6.06659Z" fill="white"/>
<path d="M12.4607 12.752C9.96856 14.739 7.84112 16.567 7.78034 16.8054C7.68916 17.0174 7.5676 18.3421 7.44603 19.7197L7.23328 22.2631L4.04213 24.4885C1.03333 26.608 0 27.5087 0 27.9856C0 28.3565 1.18529 29.2573 1.64117 29.2573C2.12744 29.2573 8.90484 24.515 9.78621 23.5877C10.1813 23.1903 10.3333 22.528 10.3333 21.1768C10.3333 19.3223 10.3333 19.2958 11.2754 19.0044C12.1568 18.713 12.3391 18.7395 13.3725 19.4548C15.2568 20.7529 15.196 20.5675 14.8617 24.8329C14.5577 29.0983 14.7097 29.7872 15.9558 29.7872C17.293 29.7872 17.5362 29.2308 17.7793 25.7602C18.2048 19.2428 18.3263 19.9052 16.2901 18.3156L14.497 16.9379L16.2293 15.6397C17.1715 14.9244 17.992 14.3946 18.0528 14.4475C18.0832 14.5005 18.4479 15.2688 18.8734 16.1431C19.5116 17.4943 19.7548 17.7327 20.4842 17.8122C21.3048 17.8917 26.3194 16.0636 27.4439 15.2423C28.4165 14.527 27.9302 13.0964 26.6537 13.0964C26.3498 13.0964 25.0734 13.4938 23.8273 13.9972C22.6116 14.5005 21.5175 14.8184 21.4567 14.7125C21.3959 14.633 20.8793 13.5998 20.3626 12.4341C19.8459 11.2683 19.2077 10.0497 18.9646 9.70524C18.0832 8.53954 17.293 8.91045 12.4607 12.752Z" fill="white"/>
<path d="M30.122 17.0578C27.2125 17.8123 27.2422 21.6656 30.1814 22.3931C31.9925 22.8243 33.3285 22.2045 34.1004 20.5877C35.0505 18.5668 32.6456 16.4111 30.122 17.0578Z" fill="white"/>
</svg>
