<svg width="61" height="46" viewBox="0 0 61 46" fill="none" xmlns="http://www.w3.org/2000/svg">
<path d="M1.39893 0.672195C0.845867 0.930367 0.2928 1.41802 0.1952 1.76225C0.0976 2.10648 0 5.20454 0 8.64684V14.9003L0.813333 15.5888C1.52907 16.2486 1.8544 16.3059 4.32693 16.3059C8.23093 16.3059 8.45867 16.0765 8.45867 12.1465V9.13449H10.4107C12.3301 9.13449 12.3627 9.16318 12.3627 9.90901C12.3627 10.5688 13.7291 11.9744 19.3573 17.1665L26.3195 23.6208V27.895C26.352 31.366 26.2869 32.1118 25.8965 31.9971C25.6688 31.911 23.6517 30.8209 21.4395 29.5588C19.2272 28.2966 17.08 27.2065 16.7221 27.0918C15.7461 26.8336 14.4123 27.436 14.0219 28.3253C13.8592 28.7269 13.6315 32.5421 13.5339 36.7589L13.3387 44.4754L14.2496 45.2786C15.2907 46.1965 16.4944 46.1678 17.4704 45.2212C17.9909 44.7048 18.056 43.959 18.1536 38.7956C18.2187 35.5828 18.3488 32.9437 18.4464 32.9437C18.544 32.9437 20.3659 33.919 22.4805 35.0951L26.3195 37.2465H31.6875C37.7061 37.2465 37.1856 37.4187 40.6992 34.4353C42.0331 33.3453 42.2608 33.2305 42.4235 33.6895C42.5211 34.0051 43.1067 36.3573 43.7573 38.9677C45.2213 44.9917 45.0912 44.6475 46.3925 45.1925C47.4336 45.6515 47.5637 45.6515 48.4096 45.0778C48.9627 44.7048 49.3205 44.1885 49.3856 43.6148C49.5157 42.5821 46.4251 29.7882 45.7093 28.44C45.1888 27.436 44.1152 27.0344 42.9115 27.35C42.5211 27.4647 40.8619 28.6695 39.2352 30.0177L36.2747 32.456L36.0795 29.903C35.9493 28.4974 35.8517 26.5181 35.8192 25.4854V23.6208L42.0005 17.0231C45.384 13.38 48.2469 10.1385 48.3771 9.76558C48.5397 9.19187 48.7349 9.13449 50.4267 9.13449H52.3136L52.4437 12.1752C52.5739 16.0765 52.8016 16.3059 56.7707 16.3059C58.9504 16.3059 59.6011 16.1912 60.2192 15.7609C61 15.2159 61 15.2159 61 8.44604C61 1.79094 61 1.6762 60.2517 1.04511C59.6011 0.471394 59.2107 0.385338 56.7381 0.385338C54.0704 0.385338 53.9077 0.414021 53.1595 1.18854C52.4437 1.93437 52.3787 2.24991 52.3787 5.00375V7.98706H50.3291C49.0277 7.98706 48.0517 7.84364 47.6288 7.55678C46.8155 7.01175 45.872 7.01175 44.9936 7.55678C44.3429 7.95838 42.0331 7.98706 26.4496 7.92969L8.62133 7.84364L8.52373 4.65952C8.45867 1.84831 8.36107 1.38934 7.77547 0.930367C6.832 0.184536 2.86293 0.0411072 1.39893 0.672195ZM41.9029 10.6262C41.1221 11.458 38.7147 14.0111 36.6 16.2773L32.7611 20.3793L30.9067 20.2646L29.0523 20.1498L25.3435 16.7075C23.2939 14.843 20.6261 12.3473 19.3899 11.1999L17.1451 9.13449H30.256H43.3344L41.9029 10.6262Z" fill="white"/>
<path d="M28.4621 11.6183C25.4763 13.0039 25.1069 16.6896 27.7849 18.4909C28.9854 19.2668 31.7249 19.3776 32.987 18.6571C34.249 17.9366 35.0185 16.5787 35.0185 15.0823C35.0185 12.2834 31.294 10.2882 28.4621 11.6183Z" fill="white"/>
</svg>
