<svg width="61" height="23" viewBox="0 0 61 23" fill="none" xmlns="http://www.w3.org/2000/svg">
<path d="M30.7979 1.17001C29.0123 1.91922 29.0123 2.86386 30.8693 7.84771C31.7621 10.2582 32.4406 12.2126 32.4048 12.2452C32.012 12.5058 19.2633 11.724 17.1206 11.3331C13.6567 10.6817 10.5855 10.6817 7.22872 11.3331C3.30053 12.0498 -0.484816 13.4179 0.0508459 13.9065C0.157978 14.0368 1.76497 13.6459 3.62193 13.027C6.80019 11.9846 7.1573 11.9521 12.1211 11.9521C15.1922 11.9521 17.9063 12.1149 18.799 12.3755C20.2275 12.7664 20.2632 12.799 19.8703 13.7436C19.4775 14.6557 19.3704 14.7209 18.1919 14.4928C17.5134 14.33 14.6923 14.2322 11.9425 14.2322C7.44299 14.2322 6.65735 14.33 3.90761 15.1443C0.407954 16.1867 -0.19913 16.4799 0.122268 16.9359C0.265111 17.1639 1.08646 17.001 2.40776 16.5124C5.12178 15.5026 9.40708 14.7209 12.2639 14.7209C15.1922 14.7209 19.8346 15.5352 20.5131 16.1541C21.2274 16.773 21.2274 16.8056 29.1552 18.0108C36.7973 19.1835 37.5472 19.1184 38.2971 17.3268C38.7971 16.089 40.1184 16.0238 41.9396 17.1313C44.2965 18.5972 46.6892 18.6298 49.0461 17.1639L50.3317 16.3821L53.0814 17.0336C54.617 17.3919 56.5811 17.9783 57.4381 18.3366C59.2237 19.0532 59.6165 19.0858 59.6165 18.6298C59.6165 18.1411 57.0453 17.1313 53.6885 16.317L50.7959 15.6329L51.1887 14.6883C51.3673 14.1671 51.7601 13.7436 51.9744 13.7436C52.6529 13.7436 57.1882 15.0792 58.3309 15.6004C59.0451 15.9261 59.4379 15.9912 59.7236 15.7307C60.1522 15.3398 58.1166 14.4603 54.3313 13.4505C51.9744 12.799 51.8672 12.7013 51.4387 11.496C50.2245 7.78256 45.7964 6.219 42.1896 8.20603C40.8683 8.95523 39.6184 10.6491 39.6184 11.724C39.6184 12.3429 39.4399 12.4732 38.8328 12.3755C38.1543 12.3104 37.7972 11.7566 36.8687 9.34612C36.2616 7.71741 35.726 6.219 35.726 5.99098C35.6902 5.69782 37.1901 5.60009 42.1182 5.60009C49.0818 5.60009 50.4031 5.3395 50.7959 3.90624C51.0816 2.96159 50.3674 1.65862 49.2604 1.13743C47.9391 0.518526 32.3691 0.583675 30.7979 1.17001ZM39.7256 14.2974C39.9398 15.4375 39.1899 15.9912 38.8328 14.9489C38.4757 13.7762 38.5114 13.4179 39.0471 13.4179C39.297 13.4179 39.6184 13.8088 39.7256 14.2974Z" fill="white"/>
<path d="M5.82132 17.6519C2.03746 18.631 0 19.4353 0 19.9948C0 20.4144 0.0727665 20.4144 3.85662 19.1206C9.78709 17.1623 13.6437 17.1623 22.8487 19.2604C29.2521 20.6941 30.9258 20.834 34.5641 20.1696C40.1671 19.1905 45.0425 18.8758 48.9355 19.2604C52.4283 19.6101 57.7038 20.9039 59.7413 21.918C60.76 22.4076 61.4513 22.0579 60.6509 21.4285C59.8141 20.799 55.0479 19.2954 52.028 18.7709C47.9167 18.0016 42.532 18.0715 36.929 18.9457C31.0713 19.8899 29.3977 19.8549 24.6678 18.7709C14.8444 16.498 11.1697 16.2532 5.82132 17.6519Z" fill="white"/>
</svg>
