<svg width="61" height="52" viewBox="0 0 61 52" fill="none" xmlns="http://www.w3.org/2000/svg">
<path d="M13.5915 1.21045C12.0964 2.09076 11.3488 3.33533 11.3488 4.91382C11.3488 7.58511 13.7954 9.58857 16.7516 9.34573C21.4069 8.92075 22.97 3.4264 19.0623 1.27116C17.5671 0.451558 14.9507 0.421202 13.5915 1.21045Z" fill="white"/>
<path d="M52.6081 14.0078C45.7534 16.124 45.6859 16.1534 44.8755 15.5949C44.4365 15.301 43.7274 15.0659 43.3222 15.0659C42.917 15.0659 40.1143 15.6831 37.109 16.4179L31.6388 17.7405L26.675 15.0365C21.9138 12.4207 21.6099 12.3031 19.4151 12.1855C14.4851 11.921 14.2487 11.9798 6.98879 16.653C2.3627 19.6215 0.336669 21.0911 0.1003 21.6789C-0.169837 22.3843 0.0327653 22.884 1.61982 25.5586C4.15235 29.7615 5.4355 30.5845 7.19139 29.0267C8.30571 28.0568 8.23817 27.2926 6.85372 25.0589C6.21215 24.0008 5.67187 23.0603 5.67187 22.9427C5.67187 22.737 11.5811 18.8867 11.9188 18.8867C12.0201 18.8867 12.0876 21.2087 12.0876 24.0596V29.2325L8.71091 32.877C6.85372 34.8756 5.26667 36.8154 5.16537 37.1975C5.0303 37.5796 4.99653 40.7244 5.06406 44.2514C5.16537 49.7769 5.2329 50.6881 5.73941 51.0996C6.65112 51.8931 8.33947 51.7462 9.28495 50.8056C10.0278 50.0415 10.0616 49.8651 10.0616 44.1044V38.1968L13.1682 34.8756L16.241 31.525L17.6254 32.2304C18.4021 32.6125 21.5086 34.1408 24.5814 35.6398C30.9634 38.7552 31.1998 38.9316 31.4024 39.9897C31.5712 40.8126 33.4622 47.8371 34.07 49.8357C34.3401 50.6881 34.6778 51.0702 35.5895 51.4229C36.7038 51.8931 36.7714 51.8931 37.6831 51.3053C38.2909 50.9232 38.6286 50.3942 38.6961 49.7476C38.8312 48.7189 35.9272 37.7265 35.2181 36.5215C34.9142 36.0512 32.5505 34.6992 28.127 32.5243L21.4749 29.2619L21.5424 23.413C21.5424 20.2094 21.6099 17.5347 21.6775 17.5054C21.745 17.4466 23.7373 18.4459 26.1347 19.7685C28.4984 21.0617 30.7271 22.1198 31.0647 22.1198C31.7063 22.1198 40.3845 20.0918 43.2547 19.2982C44.5716 18.9161 45.0105 18.6222 45.3482 17.8874C45.7872 17.0057 46.1586 16.8587 53.0134 14.8014C60.0031 12.7146 62.2318 11.8035 60.3746 11.8622C59.9018 11.8622 56.4238 12.8321 52.6081 14.0078Z" fill="white"/>
</svg>
