<svg width="62" height="52" viewBox="0 0 62 52" fill="none" xmlns="http://www.w3.org/2000/svg">
<path d="M26.8848 0.942242C23.8487 1.88008 22.3118 3.95672 22.5742 6.70325C22.7616 8.81339 23.6238 10.0192 25.7228 11.0575C30.7081 13.6031 36.8554 9.01435 34.8313 4.22468C33.6693 1.51164 29.9584 -0.0625849 26.8848 0.942242Z" fill="white"/>
<path d="M3.69806 12.2929C-1.17643 14.062 -1.25085 19.2218 3.58643 21.1678C8.23767 23.0548 13.8191 19.5461 12.4796 15.5952C11.9587 14.062 10.8051 12.9416 8.98186 12.2929C7.04695 11.6148 5.63298 11.6148 3.69806 12.2929Z" fill="white"/>
<path d="M35.2186 13.1932C32.9054 13.9477 9.80833 23.3156 9.10736 23.7871C7.46007 24.9188 8.54658 27.528 10.6495 27.528C11.2453 27.528 15.7316 25.9247 20.7786 23.8814C25.7905 21.8695 29.9263 20.2977 29.9964 20.3606C30.3469 20.6749 32.3096 32.652 32.0292 32.8721C31.889 32.9978 25.8256 36.11 18.6056 39.788C1.71209 48.3385 2.83365 47.6784 2.83365 49.2187C2.83365 50.5705 3.74491 51.4192 5.21696 51.4192C6.19832 51.4192 35.6392 36.5501 36.7257 35.5127L37.4968 34.7896L37.672 35.6384C37.7772 36.11 38.2679 38.6877 38.7585 41.3597C39.7049 46.4524 40.1605 47.5212 41.4923 47.8041C43.7705 48.2442 59.3321 49.3759 60.2784 49.1244C62.2412 48.6843 62.6267 46.2952 60.9093 45.3207C60.4537 45.0692 57.1241 44.6291 52.2523 44.189C47.9062 43.8117 44.3313 43.4974 44.3313 43.4659C44.2962 43.4345 43.0695 36.9902 41.5975 29.1626C40.1254 21.3351 38.7585 14.6078 38.5833 14.1992C38.1627 13.1932 36.6206 12.7531 35.2186 13.1932Z" fill="white"/>
</svg>
